<svg xmlns="http://www.w3.org/2000/svg" xmlns:xlink="http://www.w3.org/1999/xlink" width="500" zoomAndPan="magnify" viewBox="0 0 375 374.999991" height="500" preserveAspectRatio="xMidYMid meet" version="1.2"><defs><clipPath id="ade9241eb9"><path d="M 61 19 L 195.816406 19 L 195.816406 256 L 61 256 Z M 61 19 "/></clipPath><clipPath id="b23d5fe1db"><path d="M 216.535156 75.140625 L 315.535156 75.140625 L 315.535156 174.140625 L 216.535156 174.140625 Z M 216.535156 75.140625 "/></clipPath></defs><g id="5d0332437d"><g clip-rule="nonzero" clip-path="url(#ade9241eb9)"><path style=" stroke:none;fill-rule:nonzero;fill:#143e5d;fill-opacity:1;" d="M 195.816406 87.03125 C 195.816406 86.269531 195.785156 85.507812 195.71875 84.746094 C 195.652344 83.984375 195.550781 83.230469 195.414062 82.476562 C 195.28125 81.726562 195.109375 80.980469 194.90625 80.246094 C 194.707031 79.507812 194.46875 78.785156 194.203125 78.070312 C 193.933594 77.355469 193.632812 76.652344 193.300781 75.964844 C 192.96875 75.277344 192.605469 74.605469 192.214844 73.953125 C 191.820312 73.296875 191.398438 72.660156 190.949219 72.046875 C 190.496094 71.429688 190.019531 70.832031 189.515625 70.261719 C 189.011719 69.6875 188.480469 69.136719 187.925781 68.613281 C 187.375 68.085938 186.796875 67.585938 186.199219 67.113281 C 185.597656 66.640625 184.976562 66.195312 184.339844 65.78125 C 183.699219 65.363281 183.042969 64.976562 182.367188 64.617188 C 181.691406 64.261719 181.003906 63.933594 180.296875 63.640625 C 179.59375 63.34375 178.878906 63.082031 178.148438 62.851562 C 177.421875 62.621094 176.683594 62.425781 175.9375 62.261719 C 175.191406 62.101562 174.441406 61.972656 173.683594 61.875 C 172.925781 61.78125 172.164062 61.71875 171.402344 61.695312 C 170.636719 61.667969 169.875 61.675781 169.113281 61.71875 C 168.351562 61.761719 167.589844 61.839844 166.835938 61.953125 C 166.082031 62.0625 165.332031 62.210938 164.589844 62.390625 C 163.847656 62.570312 163.113281 62.78125 162.390625 63.027344 C 161.667969 63.273438 160.960938 63.550781 160.261719 63.863281 C 159.5625 64.171875 158.882812 64.515625 158.214844 64.886719 C 157.546875 65.257812 156.898438 65.660156 156.269531 66.09375 C 155.640625 66.523438 155.03125 66.980469 154.441406 67.46875 C 153.851562 67.953125 153.285156 68.464844 152.742188 69.003906 C 152.203125 69.542969 151.683594 70.101562 151.191406 70.6875 C 150.703125 71.269531 150.238281 71.875 149.800781 72.503906 C 149.363281 73.128906 148.957031 73.773438 148.578125 74.4375 C 148.199219 75.101562 147.851562 75.78125 147.535156 76.472656 C 147.21875 77.167969 146.933594 77.878906 146.683594 78.597656 C 146.429688 79.320312 146.210938 80.050781 146.023438 80.789062 C 145.835938 81.53125 145.683594 82.277344 145.566406 83.03125 C 145.449219 83.785156 145.363281 84.542969 145.3125 85.304688 C 145.265625 86.066406 145.25 86.832031 145.269531 87.59375 C 145.289062 88.359375 145.339844 89.117188 145.429688 89.878906 C 145.515625 90.636719 145.640625 91.386719 145.796875 92.136719 C 145.953125 92.882812 146.140625 93.621094 146.367188 94.351562 C 146.589844 95.082031 146.84375 95.800781 147.132812 96.507812 C 147.421875 97.214844 147.742188 97.90625 148.09375 98.585938 C 148.445312 99.265625 148.824219 99.925781 149.238281 100.566406 C 149.648438 101.210938 150.085938 101.835938 150.554688 102.4375 C 151.023438 103.042969 151.515625 103.625 152.039062 104.183594 C 152.558594 104.742188 153.101562 105.277344 153.671875 105.785156 C 154.238281 106.292969 154.832031 106.777344 155.441406 107.234375 C 156.054688 107.6875 156.6875 108.117188 157.339844 108.515625 C 157.988281 108.914062 158.65625 109.28125 159.34375 109.621094 C 160.027344 109.960938 160.726562 110.265625 161.4375 110.539062 C 161.242188 111.761719 160.992188 112.972656 160.691406 114.171875 C 160.390625 115.371094 160.035156 116.554688 159.628906 117.726562 C 159.222656 118.894531 158.765625 120.042969 158.257812 121.171875 C 157.75 122.296875 157.191406 123.402344 156.589844 124.480469 C 155.984375 125.5625 155.332031 126.613281 154.636719 127.632812 C 153.9375 128.65625 153.195312 129.644531 152.410156 130.601562 C 151.628906 131.558594 150.800781 132.476562 149.9375 133.363281 C 149.070312 134.246094 148.167969 135.089844 147.226562 135.894531 C 146.289062 136.699219 145.3125 137.460938 144.308594 138.179688 C 143.300781 138.898438 142.261719 139.570312 141.195312 140.199219 C 140.128906 140.824219 139.039062 141.402344 137.921875 141.933594 C 136.804688 142.464844 135.664062 142.945312 134.503906 143.378906 C 133.34375 143.808594 132.167969 144.1875 130.976562 144.515625 C 129.78125 144.84375 128.578125 145.117188 127.359375 145.335938 C 126.144531 145.558594 124.917969 145.726562 123.6875 145.835938 C 122.453125 145.949219 121.21875 146.007812 119.980469 146.011719 C 117.714844 146 115.464844 146.171875 113.226562 146.53125 C 110.992188 146.886719 108.796875 147.425781 106.648438 148.140625 C 104.5 148.855469 102.421875 149.742188 100.417969 150.800781 C 98.414062 151.855469 96.507812 153.070312 94.703125 154.441406 L 94.703125 68.664062 C 95.632812 68.335938 96.539062 67.953125 97.421875 67.519531 C 98.304688 67.085938 99.164062 66.601562 99.988281 66.066406 C 100.816406 65.535156 101.609375 64.953125 102.371094 64.324219 C 103.128906 63.699219 103.847656 63.03125 104.53125 62.320312 C 105.210938 61.609375 105.847656 60.859375 106.441406 60.074219 C 107.039062 59.289062 107.582031 58.472656 108.082031 57.621094 C 108.578125 56.773438 109.027344 55.898438 109.421875 54.996094 C 109.820312 54.09375 110.160156 53.171875 110.449219 52.230469 C 110.738281 51.289062 110.96875 50.332031 111.144531 49.363281 C 111.324219 48.394531 111.441406 47.421875 111.503906 46.4375 C 111.566406 45.453125 111.574219 44.472656 111.519531 43.488281 C 111.46875 42.503906 111.359375 41.527344 111.191406 40.558594 C 111.027344 39.585938 110.804688 38.628906 110.523438 37.683594 C 110.246094 36.738281 109.914062 35.816406 109.527344 34.910156 C 109.140625 34.003906 108.703125 33.121094 108.214844 32.269531 C 107.722656 31.414062 107.1875 30.589844 106.601562 29.800781 C 106.015625 29.007812 105.386719 28.253906 104.710938 27.535156 C 104.039062 26.816406 103.324219 26.140625 102.570312 25.503906 C 101.816406 24.871094 101.03125 24.28125 100.210938 23.738281 C 99.386719 23.195312 98.535156 22.703125 97.65625 22.261719 C 96.777344 21.816406 95.875 21.425781 94.953125 21.089844 C 94.027344 20.75 93.085938 20.46875 92.125 20.238281 C 91.167969 20.011719 90.199219 19.839844 89.222656 19.726562 C 88.246094 19.609375 87.261719 19.554688 86.277344 19.554688 C 85.292969 19.554688 84.3125 19.609375 83.335938 19.726562 C 82.355469 19.839844 81.386719 20.011719 80.429688 20.238281 C 79.472656 20.46875 78.53125 20.75 77.605469 21.089844 C 76.679688 21.425781 75.777344 21.816406 74.898438 22.261719 C 74.019531 22.703125 73.167969 23.195312 72.347656 23.738281 C 71.527344 24.28125 70.738281 24.871094 69.984375 25.503906 C 69.234375 26.140625 68.519531 26.816406 67.84375 27.535156 C 67.171875 28.253906 66.542969 29.007812 65.957031 29.800781 C 65.371094 30.589844 64.832031 31.414062 64.34375 32.269531 C 63.855469 33.121094 63.417969 34.003906 63.03125 34.910156 C 62.644531 35.816406 62.308594 36.738281 62.03125 37.683594 C 61.753906 38.628906 61.53125 39.585938 61.363281 40.558594 C 61.199219 41.527344 61.089844 42.503906 61.035156 43.488281 C 60.984375 44.472656 60.988281 45.453125 61.050781 46.4375 C 61.113281 47.421875 61.234375 48.394531 61.410156 49.363281 C 61.585938 50.332031 61.820312 51.289062 62.109375 52.230469 C 62.394531 53.171875 62.738281 54.09375 63.132812 54.996094 C 63.53125 55.898438 63.976562 56.773438 64.476562 57.621094 C 64.972656 58.472656 65.519531 59.289062 66.113281 60.074219 C 66.707031 60.859375 67.34375 61.609375 68.027344 62.320312 C 68.707031 63.03125 69.425781 63.699219 70.1875 64.324219 C 70.945312 64.953125 71.738281 65.535156 72.566406 66.066406 C 73.394531 66.601562 74.25 67.085938 75.132812 67.519531 C 76.019531 67.953125 76.925781 68.335938 77.851562 68.664062 L 77.851562 206.511719 C 76.925781 206.839844 76.019531 207.222656 75.132812 207.65625 C 74.25 208.089844 73.394531 208.574219 72.566406 209.109375 C 71.738281 209.640625 70.945312 210.222656 70.1875 210.847656 C 69.425781 211.476562 68.707031 212.144531 68.027344 212.855469 C 67.34375 213.566406 66.707031 214.316406 66.113281 215.101562 C 65.519531 215.886719 64.972656 216.703125 64.476562 217.554688 C 63.976562 218.402344 63.53125 219.277344 63.132812 220.179688 C 62.738281 221.082031 62.394531 222.003906 62.109375 222.945312 C 61.820312 223.886719 61.585938 224.84375 61.410156 225.8125 C 61.234375 226.78125 61.113281 227.753906 61.050781 228.738281 C 60.988281 229.722656 60.984375 230.703125 61.035156 231.6875 C 61.089844 232.671875 61.199219 233.648438 61.363281 234.617188 C 61.53125 235.589844 61.753906 236.546875 62.03125 237.492188 C 62.308594 238.4375 62.644531 239.359375 63.03125 240.265625 C 63.417969 241.171875 63.855469 242.050781 64.34375 242.90625 C 64.832031 243.761719 65.371094 244.585938 65.957031 245.375 C 66.542969 246.167969 67.171875 246.921875 67.84375 247.640625 C 68.519531 248.359375 69.234375 249.035156 69.984375 249.671875 C 70.738281 250.304688 71.527344 250.894531 72.347656 251.4375 C 73.167969 251.980469 74.019531 252.472656 74.898438 252.914062 C 75.777344 253.359375 76.679688 253.75 77.605469 254.085938 C 78.53125 254.425781 79.472656 254.707031 80.429688 254.9375 C 81.386719 255.164062 82.355469 255.335938 83.335938 255.449219 C 84.3125 255.5625 85.292969 255.621094 86.277344 255.621094 C 87.261719 255.621094 88.246094 255.5625 89.222656 255.449219 C 90.199219 255.335938 91.167969 255.164062 92.125 254.9375 C 93.085938 254.707031 94.027344 254.425781 94.953125 254.085938 C 95.875 253.75 96.777344 253.359375 97.65625 252.914062 C 98.535156 252.472656 99.386719 251.980469 100.210938 251.4375 C 101.03125 250.894531 101.816406 250.304688 102.570312 249.671875 C 103.324219 249.035156 104.039062 248.359375 104.710938 247.640625 C 105.386719 246.921875 106.015625 246.167969 106.601562 245.375 C 107.1875 244.585938 107.722656 243.761719 108.214844 242.90625 C 108.703125 242.050781 109.140625 241.171875 109.527344 240.265625 C 109.914062 239.359375 110.246094 238.4375 110.523438 237.492188 C 110.804688 236.546875 111.027344 235.589844 111.191406 234.617188 C 111.359375 233.648438 111.46875 232.671875 111.519531 231.6875 C 111.574219 230.703125 111.566406 229.722656 111.503906 228.738281 C 111.441406 227.753906 111.324219 226.78125 111.144531 225.8125 C 110.96875 224.84375 110.738281 223.886719 110.449219 222.945312 C 110.160156 222.003906 109.820312 221.082031 109.421875 220.179688 C 109.027344 219.277344 108.578125 218.402344 108.082031 217.554688 C 107.582031 216.703125 107.039062 215.886719 106.441406 215.101562 C 105.847656 214.316406 105.210938 213.566406 104.53125 212.855469 C 103.847656 212.144531 103.128906 211.476562 102.371094 210.847656 C 101.609375 210.222656 100.816406 209.640625 99.988281 209.109375 C 99.164062 208.574219 98.304688 208.089844 97.421875 207.65625 C 96.539062 207.222656 95.632812 206.839844 94.703125 206.511719 L 94.703125 188.144531 C 94.703125 187.316406 94.746094 186.488281 94.824219 185.664062 C 94.90625 184.839844 95.027344 184.023438 95.191406 183.210938 C 95.351562 182.398438 95.550781 181.597656 95.792969 180.804688 C 96.03125 180.011719 96.3125 179.234375 96.628906 178.46875 C 96.945312 177.703125 97.296875 176.957031 97.6875 176.226562 C 98.078125 175.496094 98.503906 174.789062 98.964844 174.101562 C 99.425781 173.410156 99.917969 172.746094 100.441406 172.105469 C 100.96875 171.46875 101.523438 170.855469 102.109375 170.269531 C 102.691406 169.683594 103.304688 169.128906 103.945312 168.601562 C 104.585938 168.078125 105.25 167.585938 105.9375 167.125 C 106.625 166.664062 107.335938 166.242188 108.066406 165.851562 C 108.796875 165.460938 109.542969 165.105469 110.308594 164.789062 C 111.074219 164.472656 111.851562 164.195312 112.644531 163.953125 C 113.4375 163.714844 114.238281 163.511719 115.050781 163.351562 C 115.863281 163.191406 116.679688 163.070312 117.503906 162.988281 C 118.328125 162.90625 119.152344 162.867188 119.980469 162.867188 C 121.777344 162.878906 123.566406 162.808594 125.355469 162.660156 C 127.140625 162.507812 128.917969 162.277344 130.6875 161.960938 C 132.453125 161.648438 134.203125 161.257812 135.933594 160.785156 C 137.664062 160.3125 139.367188 159.761719 141.046875 159.132812 C 142.730469 158.503906 144.378906 157.800781 145.992188 157.023438 C 147.609375 156.246094 149.1875 155.394531 150.726562 154.472656 C 152.265625 153.550781 153.757812 152.558594 155.207031 151.5 C 156.65625 150.441406 158.050781 149.320312 159.398438 148.132812 C 160.746094 146.945312 162.035156 145.699219 163.265625 144.398438 C 164.496094 143.09375 165.667969 141.734375 166.777344 140.324219 C 167.886719 138.914062 168.925781 137.457031 169.902344 135.949219 C 170.878906 134.445312 171.78125 132.898438 172.617188 131.308594 C 173.449219 129.722656 174.210938 128.097656 174.898438 126.441406 C 175.582031 124.78125 176.191406 123.097656 176.722656 121.382812 C 177.257812 119.671875 177.710938 117.9375 178.082031 116.179688 C 178.457031 114.425781 178.75 112.660156 178.964844 110.878906 C 180.1875 110.445312 181.375 109.917969 182.519531 109.304688 C 183.664062 108.6875 184.753906 107.988281 185.789062 107.203125 C 186.824219 106.417969 187.796875 105.5625 188.699219 104.625 C 189.601562 103.691406 190.429688 102.695312 191.179688 101.632812 C 191.929688 100.574219 192.59375 99.460938 193.171875 98.296875 C 193.75 97.132812 194.238281 95.929688 194.628906 94.691406 C 195.023438 93.453125 195.320312 92.191406 195.519531 90.90625 C 195.71875 89.625 195.816406 88.332031 195.816406 87.03125 Z M 86.277344 36.476562 C 86.832031 36.476562 87.378906 36.53125 87.921875 36.636719 C 88.464844 36.746094 88.992188 36.90625 89.503906 37.117188 C 90.015625 37.328125 90.5 37.589844 90.960938 37.898438 C 91.417969 38.203125 91.84375 38.554688 92.234375 38.945312 C 92.628906 39.335938 92.976562 39.761719 93.285156 40.222656 C 93.589844 40.679688 93.851562 41.167969 94.0625 41.679688 C 94.273438 42.1875 94.433594 42.714844 94.542969 43.257812 C 94.648438 43.800781 94.703125 44.347656 94.703125 44.902344 C 94.703125 45.457031 94.648438 46.003906 94.542969 46.546875 C 94.433594 47.089844 94.273438 47.617188 94.0625 48.128906 C 93.851562 48.636719 93.589844 49.125 93.285156 49.582031 C 92.976562 50.042969 92.628906 50.46875 92.234375 50.859375 C 91.84375 51.25 91.417969 51.601562 90.960938 51.910156 C 90.5 52.214844 90.015625 52.476562 89.503906 52.6875 C 88.992188 52.898438 88.464844 53.058594 87.921875 53.167969 C 87.378906 53.273438 86.832031 53.328125 86.277344 53.328125 C 85.726562 53.328125 85.175781 53.273438 84.632812 53.167969 C 84.09375 53.058594 83.566406 52.898438 83.054688 52.6875 C 82.542969 52.476562 82.058594 52.214844 81.597656 51.910156 C 81.136719 51.601562 80.710938 51.25 80.320312 50.859375 C 79.929688 50.46875 79.578125 50.042969 79.273438 49.582031 C 78.964844 49.125 78.707031 48.636719 78.492188 48.128906 C 78.28125 47.617188 78.121094 47.089844 78.015625 46.546875 C 77.90625 46.003906 77.851562 45.457031 77.851562 44.902344 C 77.851562 44.347656 77.90625 43.800781 78.015625 43.257812 C 78.121094 42.714844 78.28125 42.1875 78.492188 41.679688 C 78.707031 41.167969 78.964844 40.679688 79.273438 40.222656 C 79.578125 39.761719 79.929688 39.335938 80.320312 38.945312 C 80.710938 38.554688 81.136719 38.203125 81.597656 37.898438 C 82.058594 37.589844 82.542969 37.328125 83.054688 37.117188 C 83.566406 36.90625 84.09375 36.746094 84.632812 36.636719 C 85.175781 36.53125 85.726562 36.476562 86.277344 36.476562 Z M 86.277344 238.699219 C 85.726562 238.699219 85.175781 238.644531 84.632812 238.535156 C 84.09375 238.429688 83.566406 238.269531 83.054688 238.058594 C 82.542969 237.84375 82.058594 237.585938 81.597656 237.277344 C 81.136719 236.972656 80.710938 236.621094 80.320312 236.230469 C 79.929688 235.839844 79.578125 235.414062 79.273438 234.953125 C 78.964844 234.492188 78.707031 234.007812 78.492188 233.496094 C 78.28125 232.984375 78.121094 232.460938 78.015625 231.917969 C 77.90625 231.375 77.851562 230.824219 77.851562 230.273438 C 77.851562 229.71875 77.90625 229.171875 78.015625 228.628906 C 78.121094 228.085938 78.28125 227.558594 78.492188 227.046875 C 78.707031 226.539062 78.964844 226.050781 79.273438 225.589844 C 79.578125 225.132812 79.929688 224.707031 80.320312 224.316406 C 80.710938 223.921875 81.136719 223.574219 81.597656 223.265625 C 82.058594 222.960938 82.542969 222.699219 83.054688 222.488281 C 83.566406 222.277344 84.09375 222.117188 84.632812 222.007812 C 85.175781 221.902344 85.726562 221.847656 86.277344 221.847656 C 86.832031 221.847656 87.378906 221.902344 87.921875 222.007812 C 88.464844 222.117188 88.992188 222.277344 89.503906 222.488281 C 90.015625 222.699219 90.5 222.960938 90.960938 223.265625 C 91.417969 223.574219 91.84375 223.921875 92.234375 224.316406 C 92.628906 224.707031 92.976562 225.132812 93.285156 225.589844 C 93.589844 226.050781 93.851562 226.539062 94.0625 227.046875 C 94.273438 227.558594 94.433594 228.085938 94.542969 228.628906 C 94.648438 229.171875 94.703125 229.71875 94.703125 230.273438 C 94.703125 230.824219 94.648438 231.375 94.542969 231.917969 C 94.433594 232.460938 94.273438 232.984375 94.0625 233.496094 C 93.851562 234.007812 93.589844 234.492188 93.285156 234.953125 C 92.976562 235.414062 92.628906 235.839844 92.234375 236.230469 C 91.84375 236.621094 91.417969 236.972656 90.960938 237.277344 C 90.5 237.585938 90.015625 237.84375 89.503906 238.058594 C 88.992188 238.269531 88.464844 238.429688 87.921875 238.535156 C 87.378906 238.644531 86.832031 238.699219 86.277344 238.699219 Z M 170.539062 95.457031 C 169.984375 95.457031 169.4375 95.402344 168.894531 95.296875 C 168.351562 95.1875 167.824219 95.027344 167.3125 94.816406 C 166.800781 94.605469 166.316406 94.34375 165.855469 94.039062 C 165.394531 93.730469 164.96875 93.382812 164.578125 92.988281 C 164.1875 92.597656 163.839844 92.171875 163.53125 91.714844 C 163.222656 91.253906 162.964844 90.769531 162.753906 90.257812 C 162.542969 89.746094 162.382812 89.21875 162.273438 88.675781 C 162.164062 88.132812 162.113281 87.585938 162.113281 87.03125 C 162.113281 86.480469 162.164062 85.929688 162.273438 85.386719 C 162.382812 84.847656 162.542969 84.320312 162.753906 83.808594 C 162.964844 83.296875 163.222656 82.8125 163.53125 82.351562 C 163.839844 81.890625 164.1875 81.464844 164.578125 81.074219 C 164.96875 80.683594 165.394531 80.332031 165.855469 80.027344 C 166.316406 79.71875 166.800781 79.460938 167.3125 79.246094 C 167.824219 79.035156 168.351562 78.875 168.894531 78.769531 C 169.4375 78.660156 169.984375 78.605469 170.539062 78.605469 C 171.089844 78.605469 171.640625 78.660156 172.179688 78.769531 C 172.722656 78.875 173.25 79.035156 173.761719 79.246094 C 174.273438 79.460938 174.757812 79.71875 175.21875 80.027344 C 175.679688 80.332031 176.105469 80.683594 176.496094 81.074219 C 176.886719 81.464844 177.234375 81.890625 177.542969 82.351562 C 177.851562 82.8125 178.109375 83.296875 178.320312 83.808594 C 178.535156 84.320312 178.695312 84.847656 178.800781 85.386719 C 178.910156 85.929688 178.964844 86.480469 178.964844 87.03125 C 178.964844 87.585938 178.910156 88.132812 178.800781 88.675781 C 178.695312 89.21875 178.535156 89.746094 178.320312 90.257812 C 178.109375 90.769531 177.851562 91.253906 177.542969 91.714844 C 177.234375 92.171875 176.886719 92.597656 176.496094 92.988281 C 176.105469 93.382812 175.679688 93.730469 175.21875 94.039062 C 174.757812 94.34375 174.273438 94.605469 173.761719 94.816406 C 173.25 95.027344 172.722656 95.1875 172.179688 95.296875 C 171.640625 95.402344 171.089844 95.457031 170.539062 95.457031 Z M 170.539062 95.457031 "/></g><path style="fill:none;stroke-width:26;stroke-linecap:butt;stroke-linejoin:miter;stroke:#143e5d;stroke-opacity:1;stroke-miterlimit:4;" d="M 0.000138347 12.998808 C 39.422969 13.00089 78.842195 12.999198 118.265025 13.001281 " transform="matrix(0.516903,-0.541235,0.541235,0.516903,178.972332,211.882515)"/><path style="fill:none;stroke-width:26;stroke-linecap:butt;stroke-linejoin:miter;stroke:#143e5d;stroke-opacity:1;stroke-miterlimit:4;" d="M 0.00147626 13.000294 C 20.574394 13.000294 41.152521 13.000294 61.725439 13.000294 " transform="matrix(0.75,0,0,0.75,107.315299,219.714624)"/><path style="fill:none;stroke-width:26;stroke-linecap:butt;stroke-linejoin:miter;stroke:#143e5d;stroke-opacity:1;stroke-miterlimit:4;" d="M 4.556491 12.174702 C 24.439257 19.618777 41.144423 19.619279 54.671989 12.176207 " transform="matrix(0.708746,-0.245314,0.245314,0.708746,145.616011,221.953843)"/><g clip-rule="nonzero" clip-path="url(#b23d5fe1db)"><path style=" stroke:none;fill-rule:nonzero;fill:#27c7c5;fill-opacity:1;" d="M 315.535156 124.640625 C 315.535156 126.261719 315.457031 127.882812 315.296875 129.496094 C 315.136719 131.109375 314.902344 132.710938 314.585938 134.300781 C 314.269531 135.890625 313.875 137.460938 313.402344 139.011719 C 312.933594 140.5625 312.386719 142.085938 311.765625 143.585938 C 311.148438 145.082031 310.453125 146.546875 309.691406 147.976562 C 308.925781 149.40625 308.09375 150.796875 307.191406 152.144531 C 306.292969 153.492188 305.328125 154.792969 304.300781 156.042969 C 303.269531 157.296875 302.183594 158.496094 301.039062 159.644531 C 299.890625 160.789062 298.691406 161.878906 297.4375 162.90625 C 296.183594 163.933594 294.882812 164.898438 293.535156 165.800781 C 292.1875 166.699219 290.800781 167.535156 289.371094 168.296875 C 287.941406 169.0625 286.476562 169.753906 284.976562 170.375 C 283.480469 170.996094 281.957031 171.539062 280.40625 172.011719 C 278.851562 172.480469 277.28125 172.875 275.691406 173.191406 C 274.101562 173.507812 272.5 173.746094 270.886719 173.902344 C 269.273438 174.0625 267.65625 174.140625 266.035156 174.140625 C 264.414062 174.140625 262.796875 174.0625 261.183594 173.902344 C 259.570312 173.746094 257.96875 173.507812 256.378906 173.191406 C 254.789062 172.875 253.21875 172.480469 251.667969 172.011719 C 250.113281 171.539062 248.589844 170.996094 247.09375 170.375 C 245.59375 169.753906 244.132812 169.0625 242.703125 168.296875 C 241.273438 167.535156 239.882812 166.699219 238.535156 165.800781 C 237.1875 164.898438 235.886719 163.933594 234.632812 162.90625 C 233.378906 161.878906 232.179688 160.789062 231.035156 159.644531 C 229.886719 158.496094 228.800781 157.296875 227.769531 156.042969 C 226.742188 154.792969 225.777344 153.492188 224.878906 152.144531 C 223.976562 150.796875 223.144531 149.40625 222.378906 147.976562 C 221.617188 146.546875 220.921875 145.082031 220.304688 143.585938 C 219.683594 142.085938 219.136719 140.5625 218.667969 139.011719 C 218.195312 137.460938 217.804688 135.890625 217.488281 134.300781 C 217.171875 132.710938 216.933594 131.109375 216.773438 129.496094 C 216.613281 127.882812 216.535156 126.261719 216.535156 124.640625 C 216.535156 123.019531 216.613281 121.402344 216.773438 119.789062 C 216.933594 118.175781 217.171875 116.574219 217.488281 114.984375 C 217.804688 113.394531 218.195312 111.824219 218.667969 110.273438 C 219.136719 108.722656 219.683594 107.199219 220.304688 105.699219 C 220.921875 104.203125 221.617188 102.738281 222.378906 101.308594 C 223.144531 99.878906 223.976562 98.488281 224.878906 97.140625 C 225.777344 95.792969 226.742188 94.492188 227.769531 93.238281 C 228.800781 91.988281 229.886719 90.785156 231.035156 89.640625 C 232.179688 88.496094 233.378906 87.40625 234.632812 86.378906 C 235.886719 85.351562 237.1875 84.386719 238.535156 83.484375 C 239.882812 82.585938 241.273438 81.75 242.703125 80.988281 C 244.132812 80.222656 245.59375 79.53125 247.09375 78.910156 C 248.589844 78.289062 250.113281 77.746094 251.667969 77.273438 C 253.21875 76.804688 254.789062 76.410156 256.378906 76.09375 C 257.96875 75.777344 259.570312 75.539062 261.183594 75.378906 C 262.796875 75.222656 264.414062 75.140625 266.035156 75.140625 C 267.65625 75.140625 269.273438 75.222656 270.886719 75.378906 C 272.5 75.539062 274.101562 75.777344 275.691406 76.09375 C 277.28125 76.410156 278.851562 76.804688 280.40625 77.273438 C 281.957031 77.746094 283.480469 78.289062 284.976562 78.910156 C 286.476562 79.53125 287.941406 80.222656 289.371094 80.988281 C 290.800781 81.75 292.1875 82.585938 293.535156 83.484375 C 294.882812 84.386719 296.183594 85.351562 297.4375 86.378906 C 298.691406 87.40625 299.890625 88.496094 301.039062 89.640625 C 302.183594 90.785156 303.269531 91.988281 304.300781 93.238281 C 305.328125 94.492188 306.292969 95.792969 307.191406 97.140625 C 308.09375 98.488281 308.925781 99.878906 309.691406 101.308594 C 310.453125 102.738281 311.148438 104.203125 311.765625 105.699219 C 312.386719 107.199219 312.933594 108.722656 313.402344 110.273438 C 313.875 111.824219 314.269531 113.394531 314.585938 114.984375 C 314.902344 116.574219 315.136719 118.175781 315.296875 119.789062 C 315.457031 121.402344 315.535156 123.019531 315.535156 124.640625 Z M 315.535156 124.640625 "/></g><path style=" stroke:none;fill-rule:nonzero;fill:#f2f2f2;fill-opacity:1;" d="M 293.214844 115.292969 C 295.863281 112.640625 295.863281 108.34375 293.210938 105.695312 C 290.5625 103.046875 286.265625 103.046875 283.613281 105.699219 L 260.128906 129.191406 L 248.40625 117.46875 C 245.757812 114.820312 241.460938 114.820312 238.8125 117.46875 C 236.160156 120.121094 236.160156 124.414062 238.8125 127.066406 L 255.335938 143.589844 C 256.605469 144.859375 258.332031 145.574219 260.132812 145.574219 C 261.933594 145.574219 263.660156 144.859375 264.929688 143.585938 Z M 293.214844 115.292969 "/><g style="fill:#143e5d;fill-opacity:1;"><g transform="translate(25.289416, 341.388385)"><path style="stroke:none" d="M 15.578125 0.875 C 12.097656 0.875 8.898438 0.226562 5.984375 -1.0625 C 3.066406 -2.363281 0.679688 -4.210938 -1.171875 -6.609375 L 5.4375 -14.546875 C 8.226562 -10.773438 11.410156 -8.890625 14.984375 -8.890625 C 19.828125 -8.890625 22.25 -11.726562 22.25 -17.40625 L 22.25 -41.875 L 4.1875 -41.875 L 4.1875 -51.421875 L 34.078125 -51.421875 L 34.078125 -18.0625 C 34.078125 -11.75 32.507812 -7.015625 29.375 -3.859375 C 26.25 -0.703125 21.648438 0.875 15.578125 0.875 Z M 15.578125 0.875 "/></g></g><g style="fill:#143e5d;fill-opacity:1;"><g transform="translate(65.02435, 341.388385)"><path style="stroke:none" d="M 6.09375 -51.421875 L 18 -51.421875 L 18 0 L 6.09375 0 Z M 6.09375 -51.421875 "/></g></g><g style="fill:#143e5d;fill-opacity:1;"><g transform="translate(89.115035, 341.388385)"><path style="stroke:none" d="M 16.75 -41.71875 L 0.296875 -41.71875 L 0.296875 -51.421875 L 45.09375 -51.421875 L 45.09375 -41.71875 L 28.640625 -41.71875 L 28.640625 0 L 16.75 0 Z M 16.75 -41.71875 "/></g></g><g style="fill:#143e5d;fill-opacity:1;"><g transform="translate(131.861225, 341.388385)"><path style="stroke:none" d="M 3.8125 -25.265625 L 24.609375 -25.265625 L 24.609375 -16.09375 L 3.8125 -16.09375 Z M 3.8125 -25.265625 "/></g></g><g style="fill:#27c7c5;fill-opacity:1;"><g transform="translate(160.506997, 341.388385)"><path style="stroke:none" d="M 40.84375 -26.515625 L 51.71875 -26.515625 L 51.71875 -5.65625 C 48.925781 -3.550781 45.691406 -1.9375 42.015625 -0.8125 C 38.335938 0.3125 34.640625 0.875 30.921875 0.875 C 25.585938 0.875 20.789062 -0.257812 16.53125 -2.53125 C 12.269531 -4.8125 8.925781 -7.96875 6.5 -12 C 4.070312 -16.039062 2.859375 -20.609375 2.859375 -25.703125 C 2.859375 -30.796875 4.070312 -35.363281 6.5 -39.40625 C 8.925781 -43.445312 12.289062 -46.601562 16.59375 -48.875 C 20.90625 -51.15625 25.753906 -52.296875 31.140625 -52.296875 C 35.648438 -52.296875 39.738281 -51.535156 43.40625 -50.015625 C 47.082031 -48.503906 50.171875 -46.300781 52.671875 -43.40625 L 45.03125 -36.359375 C 41.351562 -40.222656 36.921875 -42.15625 31.734375 -42.15625 C 28.453125 -42.15625 25.535156 -41.46875 22.984375 -40.09375 C 20.441406 -38.726562 18.457031 -36.796875 17.03125 -34.296875 C 15.613281 -31.804688 14.90625 -28.941406 14.90625 -25.703125 C 14.90625 -22.523438 15.613281 -19.6875 17.03125 -17.1875 C 18.457031 -14.6875 20.429688 -12.738281 22.953125 -11.34375 C 25.472656 -9.945312 28.347656 -9.25 31.578125 -9.25 C 35.015625 -9.25 38.101562 -9.984375 40.84375 -11.453125 Z M 40.84375 -26.515625 "/></g></g><g style="fill:#27c7c5;fill-opacity:1;"><g transform="translate(217.13479, 341.388385)"><path style="stroke:none" d="M 45.09375 -39.515625 L 45.09375 0 L 34.234375 0 L 34.234375 -4.703125 C 32.710938 -2.984375 30.898438 -1.671875 28.796875 -0.765625 C 26.691406 0.140625 24.414062 0.59375 21.96875 0.59375 C 16.769531 0.59375 12.648438 -0.898438 9.609375 -3.890625 C 6.578125 -6.878906 5.0625 -11.3125 5.0625 -17.1875 L 5.0625 -39.515625 L 16.53125 -39.515625 L 16.53125 -18.875 C 16.53125 -12.507812 19.195312 -9.328125 24.53125 -9.328125 C 27.269531 -9.328125 29.472656 -10.21875 31.140625 -12 C 32.804688 -13.789062 33.640625 -16.453125 33.640625 -19.984375 L 33.640625 -39.515625 Z M 45.09375 -39.515625 "/></g></g><g style="fill:#27c7c5;fill-opacity:1;"><g transform="translate(267.593021, 341.388385)"><path style="stroke:none" d="M 16.234375 -34.296875 C 17.609375 -36.210938 19.457031 -37.660156 21.78125 -38.640625 C 24.101562 -39.617188 26.785156 -40.109375 29.828125 -40.109375 L 29.828125 -29.53125 C 28.546875 -29.625 27.6875 -29.671875 27.25 -29.671875 C 23.96875 -29.671875 21.394531 -28.753906 19.53125 -26.921875 C 17.675781 -25.085938 16.75 -22.332031 16.75 -18.65625 L 16.75 0 L 5.28125 0 L 5.28125 -39.515625 L 16.234375 -39.515625 Z M 16.234375 -34.296875 "/></g></g><g style="fill:#27c7c5;fill-opacity:1;"><g transform="translate(299.248769, 341.388385)"><path style="stroke:none" d="M 45.09375 -39.515625 L 45.09375 0 L 34.234375 0 L 34.234375 -4.703125 C 32.710938 -2.984375 30.898438 -1.671875 28.796875 -0.765625 C 26.691406 0.140625 24.414062 0.59375 21.96875 0.59375 C 16.769531 0.59375 12.648438 -0.898438 9.609375 -3.890625 C 6.578125 -6.878906 5.0625 -11.3125 5.0625 -17.1875 L 5.0625 -39.515625 L 16.53125 -39.515625 L 16.53125 -18.875 C 16.53125 -12.507812 19.195312 -9.328125 24.53125 -9.328125 C 27.269531 -9.328125 29.472656 -10.21875 31.140625 -12 C 32.804688 -13.789062 33.640625 -16.453125 33.640625 -19.984375 L 33.640625 -39.515625 Z M 45.09375 -39.515625 "/></g></g></g></svg>