<svg xmlns="http://www.w3.org/2000/svg" xmlns:xlink="http://www.w3.org/1999/xlink" width="342" zoomAndPan="magnify" viewBox="0 0 256.5 239.999995" height="320" preserveAspectRatio="xMidYMid meet" version="1.2"><defs><clipPath id="fed4607f3b"><path d="M 1 1 L 136.234375 1 L 136.234375 238 L 1 238 Z M 1 1 "/></clipPath><clipPath id="ce24b0a2d1"><path d="M 16 26 L 256 26 L 256 239.765625 L 16 239.765625 Z M 16 26 "/></clipPath><clipPath id="df85f36b33"><path d="M 0 101 L 205 101 L 205 239.765625 L 0 239.765625 Z M 0 101 "/></clipPath><clipPath id="b43284af3c"><path d="M 0 88 L 238 88 L 238 239.765625 L 0 239.765625 Z M 0 88 "/></clipPath><clipPath id="8c8ca99af6"><path d="M 156.914062 57.160156 L 255.722656 57.160156 L 255.722656 155.96875 L 156.914062 155.96875 Z M 156.914062 57.160156 "/></clipPath></defs><g id="1bd43011f7"><g clip-rule="nonzero" clip-path="url(#fed4607f3b)"><path style=" stroke:none;fill-rule:nonzero;fill:#143e5d;fill-opacity:1;" d="M 136.234375 69.027344 C 136.238281 68.265625 136.203125 67.503906 136.136719 66.746094 C 136.070312 65.984375 135.96875 65.230469 135.835938 64.480469 C 135.699219 63.730469 135.53125 62.988281 135.328125 62.253906 C 135.125 61.519531 134.890625 60.792969 134.625 60.082031 C 134.355469 59.367188 134.054688 58.667969 133.722656 57.980469 C 133.394531 57.296875 133.03125 56.625 132.640625 55.972656 C 132.246094 55.320312 131.824219 54.683594 131.375 54.070312 C 130.925781 53.453125 130.449219 52.859375 129.945312 52.289062 C 129.445312 51.714844 128.914062 51.167969 128.363281 50.640625 C 127.808594 50.117188 127.234375 49.621094 126.636719 49.148438 C 126.035156 48.675781 125.417969 48.230469 124.78125 47.816406 C 124.140625 47.398438 123.484375 47.011719 122.8125 46.65625 C 122.136719 46.300781 121.449219 45.972656 120.746094 45.679688 C 120.042969 45.386719 119.328125 45.125 118.601562 44.894531 C 117.875 44.664062 117.140625 44.46875 116.394531 44.304688 C 115.652344 44.144531 114.902344 44.015625 114.144531 43.917969 C 113.386719 43.824219 112.628906 43.765625 111.867188 43.738281 C 111.105469 43.710938 110.34375 43.722656 109.582031 43.765625 C 108.824219 43.808594 108.066406 43.882812 107.3125 43.996094 C 106.558594 44.105469 105.808594 44.253906 105.070312 44.433594 C 104.328125 44.609375 103.597656 44.824219 102.875 45.070312 C 102.15625 45.316406 101.445312 45.59375 100.75 45.902344 C 100.054688 46.210938 99.371094 46.554688 98.707031 46.925781 C 98.042969 47.296875 97.394531 47.695312 96.765625 48.128906 C 96.136719 48.558594 95.527344 49.015625 94.941406 49.5 C 94.351562 49.984375 93.789062 50.496094 93.246094 51.03125 C 92.707031 51.570312 92.191406 52.128906 91.699219 52.710938 C 91.207031 53.296875 90.746094 53.898438 90.308594 54.523438 C 89.875 55.152344 89.46875 55.792969 89.089844 56.457031 C 88.710938 57.117188 88.363281 57.796875 88.050781 58.488281 C 87.734375 59.183594 87.449219 59.890625 87.195312 60.609375 C 86.945312 61.328125 86.726562 62.058594 86.539062 62.796875 C 86.355469 63.535156 86.203125 64.28125 86.082031 65.035156 C 85.964844 65.785156 85.882812 66.542969 85.832031 67.304688 C 85.78125 68.066406 85.765625 68.824219 85.785156 69.585938 C 85.804688 70.347656 85.859375 71.109375 85.945312 71.867188 C 86.035156 72.625 86.15625 73.375 86.3125 74.121094 C 86.46875 74.867188 86.65625 75.605469 86.882812 76.332031 C 87.105469 77.0625 87.359375 77.777344 87.648438 78.484375 C 87.933594 79.191406 88.253906 79.882812 88.605469 80.558594 C 88.957031 81.234375 89.335938 81.894531 89.746094 82.535156 C 90.15625 83.179688 90.59375 83.800781 91.0625 84.402344 C 91.527344 85.003906 92.023438 85.585938 92.542969 86.144531 C 93.0625 86.703125 93.605469 87.234375 94.171875 87.742188 C 94.738281 88.25 95.328125 88.734375 95.941406 89.1875 C 96.550781 89.644531 97.183594 90.070312 97.832031 90.46875 C 98.480469 90.867188 99.148438 91.234375 99.832031 91.570312 C 100.515625 91.910156 101.210938 92.214844 101.921875 92.488281 C 101.726562 93.707031 101.480469 94.917969 101.179688 96.113281 C 100.878906 97.3125 100.523438 98.492188 100.117188 99.660156 C 99.710938 100.824219 99.257812 101.972656 98.75 103.097656 C 98.242188 104.222656 97.6875 105.324219 97.082031 106.402344 C 96.480469 107.480469 95.832031 108.527344 95.132812 109.550781 C 94.4375 110.570312 93.699219 111.554688 92.914062 112.511719 C 92.132812 113.464844 91.308594 114.382812 90.445312 115.265625 C 89.582031 116.148438 88.679688 116.992188 87.742188 117.792969 C 86.804688 118.597656 85.832031 119.355469 84.828125 120.074219 C 83.820312 120.792969 82.785156 121.460938 81.722656 122.089844 C 80.65625 122.714844 79.566406 123.292969 78.453125 123.824219 C 77.335938 124.351562 76.199219 124.832031 75.042969 125.261719 C 73.886719 125.691406 72.710938 126.070312 71.519531 126.398438 C 70.332031 126.722656 69.128906 126.996094 67.914062 127.21875 C 66.695312 127.4375 65.476562 127.605469 64.246094 127.71875 C 63.015625 127.832031 61.785156 127.890625 60.546875 127.894531 C 58.289062 127.882812 56.039062 128.054688 53.808594 128.410156 C 51.574219 128.765625 49.386719 129.300781 47.242188 130.015625 C 45.09375 130.730469 43.023438 131.617188 41.023438 132.671875 C 39.023438 133.726562 37.121094 134.9375 35.320312 136.304688 L 35.320312 50.695312 C 36.246094 50.367188 37.152344 49.984375 38.035156 49.550781 C 38.914062 49.117188 39.769531 48.636719 40.59375 48.101562 C 41.421875 47.570312 42.210938 46.992188 42.96875 46.363281 C 43.726562 45.738281 44.449219 45.070312 45.128906 44.363281 C 45.808594 43.652344 46.445312 42.90625 47.035156 42.121094 C 47.628906 41.335938 48.175781 40.519531 48.671875 39.671875 C 49.167969 38.824219 49.613281 37.953125 50.011719 37.050781 C 50.40625 36.152344 50.746094 35.230469 51.035156 34.292969 C 51.320312 33.351562 51.554688 32.398438 51.730469 31.433594 C 51.90625 30.464844 52.027344 29.492188 52.089844 28.511719 C 52.152344 27.53125 52.15625 26.546875 52.101562 25.566406 C 52.050781 24.585938 51.941406 23.609375 51.777344 22.640625 C 51.609375 21.671875 51.386719 20.71875 51.109375 19.773438 C 50.832031 18.832031 50.5 17.910156 50.113281 17.003906 C 49.726562 16.101562 49.292969 15.222656 48.800781 14.371094 C 48.3125 13.515625 47.777344 12.695312 47.191406 11.90625 C 46.609375 11.113281 45.980469 10.363281 45.308594 9.644531 C 44.636719 8.929688 43.921875 8.253906 43.171875 7.621094 C 42.421875 6.984375 41.632812 6.398438 40.8125 5.855469 C 39.996094 5.316406 39.144531 4.824219 38.269531 4.378906 C 37.390625 3.9375 36.488281 3.546875 35.566406 3.210938 C 34.644531 2.875 33.703125 2.589844 32.746094 2.363281 C 31.792969 2.136719 30.824219 1.964844 29.847656 1.851562 C 28.871094 1.738281 27.894531 1.679688 26.910156 1.679688 C 25.925781 1.679688 24.949219 1.738281 23.972656 1.851562 C 22.996094 1.964844 22.03125 2.136719 21.074219 2.363281 C 20.117188 2.589844 19.175781 2.875 18.253906 3.210938 C 17.332031 3.546875 16.429688 3.9375 15.554688 4.378906 C 14.675781 4.824219 13.828125 5.316406 13.007812 5.855469 C 12.1875 6.398438 11.402344 6.984375 10.648438 7.621094 C 9.898438 8.253906 9.1875 8.929688 8.511719 9.644531 C 7.839844 10.363281 7.210938 11.113281 6.628906 11.90625 C 6.042969 12.695312 5.507812 13.515625 5.019531 14.371094 C 4.53125 15.222656 4.09375 16.101562 3.707031 17.003906 C 3.320312 17.910156 2.988281 18.832031 2.710938 19.773438 C 2.433594 20.71875 2.210938 21.671875 2.046875 22.640625 C 1.878906 23.609375 1.769531 24.585938 1.71875 25.566406 C 1.664062 26.546875 1.671875 27.53125 1.734375 28.511719 C 1.796875 29.492188 1.914062 30.464844 2.089844 31.433594 C 2.265625 32.398438 2.5 33.351562 2.785156 34.292969 C 3.074219 35.230469 3.414062 36.152344 3.8125 37.050781 C 4.207031 37.953125 4.652344 38.824219 5.148438 39.671875 C 5.648438 40.519531 6.191406 41.335938 6.785156 42.121094 C 7.378906 42.90625 8.011719 43.652344 8.695312 44.363281 C 9.375 45.070312 10.09375 45.738281 10.851562 46.363281 C 11.609375 46.992188 12.398438 47.570312 13.226562 48.101562 C 14.050781 48.636719 14.90625 49.117188 15.789062 49.550781 C 16.671875 49.984375 17.574219 50.367188 18.5 50.695312 L 18.5 188.273438 C 17.574219 188.601562 16.671875 188.980469 15.789062 189.414062 C 14.90625 189.847656 14.050781 190.332031 13.226562 190.863281 C 12.398438 191.398438 11.609375 191.976562 10.851562 192.601562 C 10.09375 193.230469 9.375 193.894531 8.695312 194.605469 C 8.011719 195.316406 7.378906 196.0625 6.785156 196.847656 C 6.191406 197.628906 5.648438 198.445312 5.148438 199.292969 C 4.652344 200.140625 4.207031 201.015625 3.8125 201.914062 C 3.414062 202.816406 3.074219 203.734375 2.785156 204.675781 C 2.5 205.613281 2.265625 206.570312 2.089844 207.535156 C 1.914062 208.503906 1.796875 209.476562 1.734375 210.457031 C 1.671875 211.4375 1.664062 212.417969 1.71875 213.402344 C 1.769531 214.382812 1.878906 215.355469 2.046875 216.324219 C 2.210938 217.292969 2.433594 218.25 2.710938 219.191406 C 2.988281 220.136719 3.320312 221.058594 3.707031 221.964844 C 4.09375 222.867188 4.53125 223.746094 5.019531 224.597656 C 5.507812 225.449219 6.042969 226.273438 6.628906 227.0625 C 7.210938 227.851562 7.839844 228.605469 8.511719 229.324219 C 9.1875 230.039062 9.898438 230.714844 10.648438 231.347656 C 11.402344 231.980469 12.1875 232.570312 13.007812 233.109375 C 13.828125 233.652344 14.675781 234.144531 15.554688 234.585938 C 16.429688 235.03125 17.332031 235.417969 18.253906 235.757812 C 19.175781 236.09375 20.117188 236.375 21.074219 236.605469 C 22.03125 236.832031 22.996094 237 23.972656 237.117188 C 24.949219 237.230469 25.925781 237.289062 26.910156 237.289062 C 27.894531 237.289062 28.871094 237.230469 29.847656 237.117188 C 30.824219 237 31.792969 236.832031 32.746094 236.605469 C 33.703125 236.375 34.644531 236.09375 35.566406 235.757812 C 36.488281 235.417969 37.390625 235.03125 38.269531 234.585938 C 39.144531 234.144531 39.996094 233.652344 40.8125 233.109375 C 41.632812 232.570312 42.421875 231.980469 43.171875 231.347656 C 43.921875 230.714844 44.636719 230.039062 45.308594 229.324219 C 45.980469 228.605469 46.609375 227.851562 47.191406 227.0625 C 47.777344 226.273438 48.3125 225.449219 48.800781 224.597656 C 49.292969 223.746094 49.726562 222.867188 50.113281 221.960938 C 50.5 221.058594 50.832031 220.136719 51.109375 219.191406 C 51.386719 218.25 51.609375 217.292969 51.777344 216.324219 C 51.941406 215.355469 52.050781 214.382812 52.101562 213.402344 C 52.15625 212.417969 52.152344 211.4375 52.089844 210.457031 C 52.027344 209.476562 51.90625 208.503906 51.730469 207.535156 C 51.554688 206.570312 51.320312 205.613281 51.035156 204.675781 C 50.746094 203.734375 50.40625 202.816406 50.011719 201.914062 C 49.613281 201.015625 49.167969 200.140625 48.671875 199.292969 C 48.175781 198.445312 47.628906 197.628906 47.035156 196.847656 C 46.445312 196.0625 45.808594 195.316406 45.128906 194.605469 C 44.449219 193.894531 43.726562 193.230469 42.96875 192.601562 C 42.210938 191.976562 41.421875 191.398438 40.59375 190.863281 C 39.769531 190.332031 38.914062 189.847656 38.035156 189.414062 C 37.152344 188.980469 36.246094 188.601562 35.320312 188.273438 L 35.320312 169.941406 C 35.320312 169.113281 35.359375 168.289062 35.441406 167.46875 C 35.523438 166.644531 35.644531 165.828125 35.804688 165.019531 C 35.964844 164.207031 36.167969 163.410156 36.40625 162.617188 C 36.644531 161.828125 36.925781 161.050781 37.242188 160.285156 C 37.558594 159.523438 37.910156 158.777344 38.300781 158.046875 C 38.6875 157.320312 39.113281 156.613281 39.570312 155.925781 C 40.03125 155.238281 40.523438 154.574219 41.046875 153.9375 C 41.570312 153.296875 42.125 152.6875 42.710938 152.101562 C 43.292969 151.515625 43.90625 150.964844 44.542969 150.4375 C 45.183594 149.914062 45.84375 149.421875 46.53125 148.964844 C 47.21875 148.503906 47.925781 148.082031 48.65625 147.691406 C 49.382812 147.300781 50.128906 146.949219 50.894531 146.632812 C 51.65625 146.316406 52.433594 146.039062 53.226562 145.796875 C 54.015625 145.558594 54.816406 145.359375 55.625 145.195312 C 56.4375 145.035156 57.253906 144.914062 58.074219 144.832031 C 58.898438 144.753906 59.722656 144.710938 60.546875 144.710938 C 62.339844 144.726562 64.125 144.65625 65.910156 144.503906 C 67.695312 144.355469 69.46875 144.125 71.230469 143.8125 C 72.996094 143.5 74.738281 143.105469 76.46875 142.636719 C 78.195312 142.164062 79.898438 141.613281 81.574219 140.988281 C 83.25 140.359375 84.898438 139.660156 86.511719 138.882812 C 88.125 138.105469 89.699219 137.257812 91.234375 136.335938 C 92.769531 135.414062 94.257812 134.425781 95.707031 133.367188 C 97.152344 132.3125 98.546875 131.191406 99.886719 130.007812 C 101.230469 128.824219 102.519531 127.582031 103.746094 126.28125 C 104.976562 124.976562 106.144531 123.625 107.253906 122.214844 C 108.359375 120.808594 109.398438 119.351562 110.371094 117.847656 C 111.34375 116.347656 112.246094 114.800781 113.082031 113.21875 C 113.914062 111.632812 114.671875 110.011719 115.355469 108.359375 C 116.042969 106.703125 116.648438 105.019531 117.179688 103.3125 C 117.710938 101.601562 118.164062 99.871094 118.535156 98.121094 C 118.910156 96.367188 119.203125 94.605469 119.414062 92.824219 C 120.636719 92.394531 121.820312 91.871094 122.964844 91.253906 C 124.105469 90.640625 125.191406 89.941406 126.226562 89.160156 C 127.261719 88.375 128.230469 87.519531 129.132812 86.585938 C 130.035156 85.65625 130.859375 84.660156 131.609375 83.601562 C 132.355469 82.539062 133.019531 81.429688 133.597656 80.269531 C 134.175781 79.109375 134.660156 77.910156 135.050781 76.671875 C 135.445312 75.4375 135.738281 74.175781 135.9375 72.894531 C 136.136719 71.613281 136.234375 70.324219 136.234375 69.027344 Z M 26.910156 18.570312 C 27.460938 18.570312 28.007812 18.625 28.550781 18.730469 C 29.09375 18.839844 29.617188 19 30.128906 19.210938 C 30.640625 19.421875 31.125 19.679688 31.582031 19.988281 C 32.042969 20.292969 32.464844 20.640625 32.855469 21.03125 C 33.246094 21.421875 33.597656 21.847656 33.902344 22.308594 C 34.210938 22.765625 34.46875 23.25 34.679688 23.761719 C 34.890625 24.269531 35.050781 24.796875 35.160156 25.339844 C 35.265625 25.878906 35.320312 26.425781 35.320312 26.980469 C 35.320312 27.53125 35.265625 28.078125 35.160156 28.621094 C 35.050781 29.160156 34.890625 29.6875 34.679688 30.195312 C 34.46875 30.707031 34.210938 31.191406 33.902344 31.652344 C 33.597656 32.109375 33.246094 32.535156 32.855469 32.925781 C 32.464844 33.316406 32.042969 33.664062 31.582031 33.972656 C 31.125 34.277344 30.640625 34.535156 30.128906 34.75 C 29.617188 34.960938 29.09375 35.121094 28.550781 35.226562 C 28.007812 35.335938 27.460938 35.386719 26.910156 35.386719 C 26.359375 35.386719 25.8125 35.335938 25.269531 35.226562 C 24.726562 35.121094 24.203125 34.960938 23.691406 34.75 C 23.183594 34.535156 22.699219 34.277344 22.238281 33.972656 C 21.777344 33.664062 21.355469 33.316406 20.964844 32.925781 C 20.574219 32.535156 20.226562 32.109375 19.917969 31.652344 C 19.613281 31.191406 19.351562 30.707031 19.140625 30.195312 C 18.929688 29.6875 18.769531 29.160156 18.664062 28.621094 C 18.554688 28.078125 18.5 27.53125 18.5 26.980469 C 18.5 26.425781 18.554688 25.878906 18.664062 25.339844 C 18.769531 24.796875 18.929688 24.269531 19.140625 23.761719 C 19.351562 23.25 19.613281 22.765625 19.917969 22.308594 C 20.226562 21.847656 20.574219 21.421875 20.964844 21.03125 C 21.355469 20.640625 21.777344 20.292969 22.238281 19.988281 C 22.699219 19.679688 23.183594 19.421875 23.691406 19.210938 C 24.203125 19 24.726562 18.839844 25.269531 18.730469 C 25.8125 18.625 26.359375 18.570312 26.910156 18.570312 Z M 26.910156 220.398438 C 26.359375 220.398438 25.8125 220.34375 25.269531 220.238281 C 24.726562 220.128906 24.203125 219.96875 23.691406 219.757812 C 23.183594 219.546875 22.699219 219.289062 22.238281 218.980469 C 21.777344 218.675781 21.355469 218.324219 20.964844 217.933594 C 20.574219 217.542969 20.226562 217.121094 19.917969 216.660156 C 19.613281 216.203125 19.351562 215.71875 19.140625 215.207031 C 18.929688 214.695312 18.769531 214.171875 18.664062 213.628906 C 18.554688 213.085938 18.5 212.539062 18.5 211.988281 C 18.5 211.4375 18.554688 210.890625 18.664062 210.347656 C 18.769531 209.804688 18.929688 209.28125 19.140625 208.769531 C 19.351562 208.261719 19.613281 207.777344 19.917969 207.316406 C 20.226562 206.855469 20.574219 206.433594 20.964844 206.042969 C 21.355469 205.652344 21.777344 205.304688 22.238281 204.996094 C 22.699219 204.691406 23.183594 204.429688 23.691406 204.21875 C 24.203125 204.007812 24.726562 203.847656 25.269531 203.742188 C 25.8125 203.632812 26.359375 203.578125 26.910156 203.578125 C 27.460938 203.578125 28.007812 203.632812 28.550781 203.742188 C 29.09375 203.847656 29.617188 204.007812 30.128906 204.21875 C 30.640625 204.429688 31.125 204.691406 31.582031 204.996094 C 32.042969 205.304688 32.464844 205.652344 32.855469 206.042969 C 33.246094 206.433594 33.597656 206.855469 33.902344 207.316406 C 34.210938 207.777344 34.46875 208.261719 34.679688 208.769531 C 34.890625 209.28125 35.050781 209.804688 35.160156 210.347656 C 35.265625 210.890625 35.320312 211.4375 35.320312 211.988281 C 35.320312 212.539062 35.265625 213.085938 35.160156 213.628906 C 35.050781 214.171875 34.890625 214.695312 34.679688 215.207031 C 34.46875 215.71875 34.210938 216.203125 33.902344 216.660156 C 33.597656 217.121094 33.246094 217.542969 32.855469 217.933594 C 32.464844 218.324219 32.042969 218.675781 31.582031 218.980469 C 31.125 219.289062 30.640625 219.546875 30.128906 219.757812 C 29.617188 219.96875 29.09375 220.128906 28.550781 220.238281 C 28.007812 220.34375 27.460938 220.398438 26.910156 220.398438 Z M 111.003906 77.4375 C 110.453125 77.4375 109.90625 77.382812 109.363281 77.273438 C 108.824219 77.167969 108.296875 77.007812 107.789062 76.796875 C 107.277344 76.585938 106.792969 76.324219 106.332031 76.019531 C 105.875 75.710938 105.449219 75.363281 105.058594 74.972656 C 104.667969 74.582031 104.320312 74.15625 104.011719 73.699219 C 103.707031 73.238281 103.449219 72.753906 103.238281 72.246094 C 103.023438 71.734375 102.867188 71.207031 102.757812 70.667969 C 102.648438 70.125 102.597656 69.578125 102.597656 69.027344 C 102.597656 68.472656 102.648438 67.925781 102.757812 67.386719 C 102.867188 66.84375 103.023438 66.320312 103.238281 65.808594 C 103.449219 65.296875 103.707031 64.8125 104.011719 64.355469 C 104.320312 63.894531 104.667969 63.46875 105.058594 63.082031 C 105.449219 62.691406 105.875 62.339844 106.332031 62.035156 C 106.792969 61.726562 107.277344 61.46875 107.789062 61.257812 C 108.296875 61.046875 108.824219 60.886719 109.363281 60.777344 C 109.90625 60.671875 110.453125 60.617188 111.003906 60.617188 C 111.558594 60.617188 112.105469 60.671875 112.644531 60.777344 C 113.1875 60.886719 113.714844 61.046875 114.222656 61.257812 C 114.734375 61.46875 115.21875 61.726562 115.679688 62.035156 C 116.136719 62.339844 116.5625 62.691406 116.953125 63.082031 C 117.34375 63.46875 117.691406 63.894531 118 64.355469 C 118.304688 64.8125 118.5625 65.296875 118.773438 65.808594 C 118.988281 66.320312 119.144531 66.84375 119.253906 67.386719 C 119.363281 67.925781 119.414062 68.472656 119.414062 69.027344 C 119.414062 69.578125 119.363281 70.125 119.253906 70.667969 C 119.144531 71.207031 118.988281 71.734375 118.773438 72.246094 C 118.5625 72.753906 118.304688 73.238281 118 73.699219 C 117.691406 74.15625 117.34375 74.582031 116.953125 74.972656 C 116.5625 75.363281 116.136719 75.710938 115.679688 76.019531 C 115.21875 76.324219 114.734375 76.585938 114.222656 76.796875 C 113.714844 77.007812 113.1875 77.167969 112.644531 77.273438 C 112.105469 77.382812 111.558594 77.4375 111.003906 77.4375 Z M 111.003906 77.4375 "/></g><g clip-rule="nonzero" clip-path="url(#ce24b0a2d1)"><path style="fill:none;stroke-width:26;stroke-linecap:butt;stroke-linejoin:miter;stroke:#143e5d;stroke-opacity:1;stroke-miterlimit:4;" d="M -0.000327807 12.997982 C 39.42163 13.001981 78.843758 12.998585 118.265717 13.002584 " transform="matrix(0.515897,-0.540182,0.540182,0.515897,119.424206,193.634042)"/></g><g clip-rule="nonzero" clip-path="url(#df85f36b33)"><path style="fill:none;stroke-width:26;stroke-linecap:butt;stroke-linejoin:miter;stroke:#143e5d;stroke-opacity:1;stroke-miterlimit:4;" d="M -0.000439863 13.002184 C 20.576051 13.002184 41.152543 13.002184 61.723815 13.002184 " transform="matrix(0.748541,0,0,0.748541,47.906579,201.450928)"/></g><g clip-rule="nonzero" clip-path="url(#b43284af3c)"><path style="fill:none;stroke-width:26;stroke-linecap:butt;stroke-linejoin:miter;stroke:#143e5d;stroke-opacity:1;stroke-miterlimit:4;" d="M 4.561555 12.172913 C 24.438696 19.616137 41.143423 19.616261 54.675736 12.173285 " transform="matrix(0.707367,-0.244837,0.244837,0.707367,86.132772,203.685805)"/></g><g clip-rule="nonzero" clip-path="url(#8c8ca99af6)"><path style=" stroke:none;fill-rule:nonzero;fill:#27c7c5;fill-opacity:1;" d="M 255.722656 106.5625 C 255.722656 108.183594 255.640625 109.796875 255.484375 111.40625 C 255.324219 113.015625 255.089844 114.613281 254.773438 116.203125 C 254.457031 117.789062 254.0625 119.355469 253.59375 120.90625 C 253.125 122.453125 252.582031 123.976562 251.960938 125.46875 C 251.339844 126.964844 250.652344 128.425781 249.886719 129.851562 C 249.125 131.28125 248.292969 132.664062 247.394531 134.011719 C 246.496094 135.355469 245.535156 136.652344 244.507812 137.90625 C 243.480469 139.15625 242.394531 140.351562 241.25 141.496094 C 240.109375 142.640625 238.910156 143.726562 237.660156 144.753906 C 236.410156 145.78125 235.109375 146.742188 233.765625 147.640625 C 232.417969 148.539062 231.035156 149.371094 229.605469 150.132812 C 228.179688 150.898438 226.71875 151.585938 225.222656 152.207031 C 223.730469 152.824219 222.207031 153.371094 220.660156 153.839844 C 219.109375 154.308594 217.542969 154.703125 215.957031 155.019531 C 214.367188 155.332031 212.769531 155.570312 211.160156 155.730469 C 209.550781 155.886719 207.9375 155.96875 206.316406 155.96875 C 204.699219 155.96875 203.085938 155.886719 201.476562 155.730469 C 199.863281 155.570312 198.265625 155.332031 196.679688 155.019531 C 195.09375 154.703125 193.523438 154.308594 191.976562 153.839844 C 190.429688 153.371094 188.90625 152.824219 187.410156 152.207031 C 185.917969 151.585938 184.457031 150.898438 183.027344 150.132812 C 181.601562 149.371094 180.214844 148.539062 178.871094 147.640625 C 177.523438 146.742188 176.226562 145.78125 174.976562 144.753906 C 173.726562 143.726562 172.527344 142.640625 171.382812 141.496094 C 170.238281 140.351562 169.15625 139.15625 168.128906 137.90625 C 167.101562 136.652344 166.140625 135.355469 165.238281 134.011719 C 164.339844 132.664062 163.511719 131.28125 162.746094 129.851562 C 161.984375 128.425781 161.292969 126.964844 160.675781 125.46875 C 160.054688 123.976562 159.511719 122.453125 159.042969 120.90625 C 158.570312 119.355469 158.179688 117.789062 157.863281 116.203125 C 157.546875 114.613281 157.3125 113.015625 157.152344 111.40625 C 156.992188 109.796875 156.914062 108.183594 156.914062 106.5625 C 156.914062 104.945312 156.992188 103.332031 157.152344 101.722656 C 157.3125 100.109375 157.546875 98.511719 157.863281 96.925781 C 158.179688 95.339844 158.570312 93.769531 159.042969 92.222656 C 159.511719 90.675781 160.054688 89.152344 160.675781 87.65625 C 161.292969 86.164062 161.984375 84.703125 162.746094 83.273438 C 163.511719 81.847656 164.339844 80.460938 165.238281 79.117188 C 166.140625 77.769531 167.101562 76.472656 168.128906 75.222656 C 169.15625 73.972656 170.238281 72.773438 171.382812 71.628906 C 172.527344 70.484375 173.726562 69.402344 174.976562 68.375 C 176.226562 67.347656 177.523438 66.386719 178.871094 65.484375 C 180.214844 64.585938 181.601562 63.757812 183.027344 62.992188 C 184.457031 62.230469 185.917969 61.539062 187.410156 60.921875 C 188.90625 60.300781 190.429688 59.757812 191.976562 59.289062 C 193.523438 58.816406 195.09375 58.425781 196.679688 58.109375 C 198.265625 57.792969 199.863281 57.554688 201.476562 57.398438 C 203.085938 57.238281 204.699219 57.160156 206.316406 57.160156 C 207.9375 57.160156 209.550781 57.238281 211.160156 57.398438 C 212.769531 57.554688 214.367188 57.792969 215.957031 58.109375 C 217.542969 58.425781 219.109375 58.816406 220.660156 59.289062 C 222.207031 59.757812 223.730469 60.300781 225.222656 60.921875 C 226.71875 61.539062 228.179688 62.230469 229.605469 62.992188 C 231.035156 63.757812 232.417969 64.585938 233.765625 65.484375 C 235.109375 66.386719 236.410156 67.347656 237.660156 68.375 C 238.910156 69.402344 240.109375 70.484375 241.25 71.628906 C 242.394531 72.773438 243.480469 73.972656 244.507812 75.222656 C 245.535156 76.472656 246.496094 77.769531 247.394531 79.117188 C 248.292969 80.460938 249.125 81.847656 249.886719 83.273438 C 250.652344 84.703125 251.339844 86.164062 251.960938 87.65625 C 252.582031 89.152344 253.125 90.675781 253.59375 92.222656 C 254.0625 93.769531 254.457031 95.339844 254.773438 96.925781 C 255.089844 98.511719 255.324219 100.109375 255.484375 101.722656 C 255.640625 103.332031 255.722656 104.945312 255.722656 106.5625 Z M 255.722656 106.5625 "/></g><path style=" stroke:none;fill-rule:nonzero;fill:#f2f2f2;fill-opacity:1;" d="M 233.441406 97.230469 C 236.085938 94.585938 236.085938 90.296875 233.441406 87.652344 C 230.796875 85.007812 226.507812 85.011719 223.863281 87.65625 L 200.425781 111.105469 L 188.722656 99.40625 C 186.078125 96.761719 181.792969 96.761719 179.148438 99.40625 C 176.503906 102.050781 176.503906 106.335938 179.148438 108.980469 L 195.636719 125.472656 C 196.90625 126.742188 198.628906 127.457031 200.425781 127.457031 C 202.222656 127.457031 203.945312 126.742188 205.214844 125.472656 Z M 233.441406 97.230469 "/></g></svg>